<mxfile host="app.diagrams.net" agent="Mozilla/5.0 (Windows NT 10.0; Win64; x64) AppleWebKit/537.36 (KHTML, like Gecko) Chrome/133.0.0.0 Safari/537.36 Edg/133.0.0.0" version="26.0.16">
  <diagram id="R2lEEEUBdFMjLlhIrx00" name="Page-1">
    <mxGraphModel dx="1671" dy="2340" grid="1" gridSize="10" guides="1" tooltips="1" connect="1" arrows="1" fold="1" page="1" pageScale="1" pageWidth="850" pageHeight="1100" math="0" shadow="0" extFonts="Permanent Marker^https://fonts.googleapis.com/css?family=Permanent+Marker">
      <root>
        <mxCell id="0" />
        <mxCell id="1" parent="0" />
        <mxCell id="KdBA17NYIofGgqOll84M-1" value="ER DIAGRAM FOR RAILWAY MANAGEMENT SYSTEM" style="rounded=0;whiteSpace=wrap;html=1;" vertex="1" parent="1">
          <mxGeometry x="340" y="760" width="200" height="60" as="geometry" />
        </mxCell>
        <mxCell id="KdBA17NYIofGgqOll84M-3" value="Manage" style="rhombus;whiteSpace=wrap;html=1;" vertex="1" parent="1">
          <mxGeometry x="385" y="320" width="80" height="80" as="geometry" />
        </mxCell>
        <mxCell id="KdBA17NYIofGgqOll84M-4" value="station" style="rounded=0;whiteSpace=wrap;html=1;" vertex="1" parent="1">
          <mxGeometry x="393" y="420" width="65" height="40" as="geometry" />
        </mxCell>
        <mxCell id="KdBA17NYIofGgqOll84M-6" value="" style="endArrow=none;html=1;rounded=0;entryX=0.5;entryY=0;entryDx=0;entryDy=0;exitX=0.5;exitY=1;exitDx=0;exitDy=0;" edge="1" parent="1" source="KdBA17NYIofGgqOll84M-3" target="KdBA17NYIofGgqOll84M-4">
          <mxGeometry width="50" height="50" relative="1" as="geometry">
            <mxPoint x="440" y="370" as="sourcePoint" />
            <mxPoint x="490" y="320" as="targetPoint" />
          </mxGeometry>
        </mxCell>
        <mxCell id="KdBA17NYIofGgqOll84M-7" value="has" style="rhombus;whiteSpace=wrap;html=1;" vertex="1" parent="1">
          <mxGeometry x="320" y="460" width="60" height="60" as="geometry" />
        </mxCell>
        <mxCell id="KdBA17NYIofGgqOll84M-8" value="time table" style="rounded=0;whiteSpace=wrap;html=1;" vertex="1" parent="1">
          <mxGeometry x="310" y="540" width="80" height="40" as="geometry" />
        </mxCell>
        <mxCell id="KdBA17NYIofGgqOll84M-9" value="tmta_id" style="ellipse;whiteSpace=wrap;html=1;" vertex="1" parent="1">
          <mxGeometry x="240" y="600" width="90" height="40" as="geometry" />
        </mxCell>
        <mxCell id="KdBA17NYIofGgqOll84M-10" value="tmta_type" style="ellipse;whiteSpace=wrap;html=1;" vertex="1" parent="1">
          <mxGeometry x="350" y="640" width="90" height="40" as="geometry" />
        </mxCell>
        <mxCell id="KdBA17NYIofGgqOll84M-11" value="tmta_desc" style="ellipse;whiteSpace=wrap;html=1;" vertex="1" parent="1">
          <mxGeometry x="385" y="590" width="90" height="40" as="geometry" />
        </mxCell>
        <mxCell id="KdBA17NYIofGgqOll84M-12" value="" style="endArrow=none;html=1;rounded=0;exitX=0.5;exitY=0;exitDx=0;exitDy=0;entryX=0;entryY=0.5;entryDx=0;entryDy=0;" edge="1" parent="1" source="KdBA17NYIofGgqOll84M-7" target="KdBA17NYIofGgqOll84M-4">
          <mxGeometry width="50" height="50" relative="1" as="geometry">
            <mxPoint x="440" y="550" as="sourcePoint" />
            <mxPoint x="390" y="440" as="targetPoint" />
            <Array as="points">
              <mxPoint x="350" y="440" />
              <mxPoint x="370" y="440" />
            </Array>
          </mxGeometry>
        </mxCell>
        <mxCell id="KdBA17NYIofGgqOll84M-13" value="" style="endArrow=none;html=1;rounded=0;exitX=0.5;exitY=0;exitDx=0;exitDy=0;entryX=0.5;entryY=1;entryDx=0;entryDy=0;" edge="1" parent="1" source="KdBA17NYIofGgqOll84M-8" target="KdBA17NYIofGgqOll84M-7">
          <mxGeometry width="50" height="50" relative="1" as="geometry">
            <mxPoint x="440" y="550" as="sourcePoint" />
            <mxPoint x="490" y="500" as="targetPoint" />
          </mxGeometry>
        </mxCell>
        <mxCell id="KdBA17NYIofGgqOll84M-14" value="" style="endArrow=none;html=1;rounded=0;exitX=0.5;exitY=0;exitDx=0;exitDy=0;entryX=0.25;entryY=1;entryDx=0;entryDy=0;" edge="1" parent="1" source="KdBA17NYIofGgqOll84M-9" target="KdBA17NYIofGgqOll84M-8">
          <mxGeometry width="50" height="50" relative="1" as="geometry">
            <mxPoint x="360" y="550" as="sourcePoint" />
            <mxPoint x="360" y="530" as="targetPoint" />
          </mxGeometry>
        </mxCell>
        <mxCell id="KdBA17NYIofGgqOll84M-15" value="" style="endArrow=none;html=1;rounded=0;exitX=0;exitY=0;exitDx=0;exitDy=0;entryX=0.75;entryY=1;entryDx=0;entryDy=0;" edge="1" parent="1" source="KdBA17NYIofGgqOll84M-11" target="KdBA17NYIofGgqOll84M-8">
          <mxGeometry width="50" height="50" relative="1" as="geometry">
            <mxPoint x="370" y="560" as="sourcePoint" />
            <mxPoint x="370" y="540" as="targetPoint" />
          </mxGeometry>
        </mxCell>
        <mxCell id="KdBA17NYIofGgqOll84M-16" value="" style="endArrow=none;html=1;rounded=0;exitX=0;exitY=0;exitDx=0;exitDy=0;entryX=0.5;entryY=1;entryDx=0;entryDy=0;" edge="1" parent="1" source="KdBA17NYIofGgqOll84M-10" target="KdBA17NYIofGgqOll84M-8">
          <mxGeometry width="50" height="50" relative="1" as="geometry">
            <mxPoint x="380" y="570" as="sourcePoint" />
            <mxPoint x="380" y="550" as="targetPoint" />
          </mxGeometry>
        </mxCell>
        <mxCell id="KdBA17NYIofGgqOll84M-17" value="station_id" style="ellipse;whiteSpace=wrap;html=1;" vertex="1" parent="1">
          <mxGeometry x="395" y="480" width="90" height="40" as="geometry" />
        </mxCell>
        <mxCell id="KdBA17NYIofGgqOll84M-18" value="station_dis" style="ellipse;whiteSpace=wrap;html=1;" vertex="1" parent="1">
          <mxGeometry x="530" y="460" width="90" height="40" as="geometry" />
        </mxCell>
        <mxCell id="KdBA17NYIofGgqOll84M-19" value="station_name" style="ellipse;whiteSpace=wrap;html=1;" vertex="1" parent="1">
          <mxGeometry x="520" y="416" width="90" height="40" as="geometry" />
        </mxCell>
        <mxCell id="KdBA17NYIofGgqOll84M-20" value="station_type" style="ellipse;whiteSpace=wrap;html=1;" vertex="1" parent="1">
          <mxGeometry x="500" y="370" width="90" height="40" as="geometry" />
        </mxCell>
        <mxCell id="KdBA17NYIofGgqOll84M-21" value="station_desc" style="ellipse;whiteSpace=wrap;html=1;" vertex="1" parent="1">
          <mxGeometry x="500" y="500" width="90" height="40" as="geometry" />
        </mxCell>
        <mxCell id="KdBA17NYIofGgqOll84M-22" value="" style="endArrow=none;html=1;rounded=0;exitX=0.5;exitY=1;exitDx=0;exitDy=0;entryX=0.5;entryY=0;entryDx=0;entryDy=0;" edge="1" parent="1" source="KdBA17NYIofGgqOll84M-4" target="KdBA17NYIofGgqOll84M-17">
          <mxGeometry width="50" height="50" relative="1" as="geometry">
            <mxPoint x="440" y="550" as="sourcePoint" />
            <mxPoint x="490" y="500" as="targetPoint" />
          </mxGeometry>
        </mxCell>
        <mxCell id="KdBA17NYIofGgqOll84M-23" value="" style="endArrow=none;html=1;rounded=0;exitX=0.75;exitY=1;exitDx=0;exitDy=0;entryX=0.5;entryY=0;entryDx=0;entryDy=0;" edge="1" parent="1" source="KdBA17NYIofGgqOll84M-4" target="KdBA17NYIofGgqOll84M-21">
          <mxGeometry width="50" height="50" relative="1" as="geometry">
            <mxPoint x="436" y="470" as="sourcePoint" />
            <mxPoint x="450" y="490" as="targetPoint" />
          </mxGeometry>
        </mxCell>
        <mxCell id="KdBA17NYIofGgqOll84M-24" value="" style="endArrow=none;html=1;rounded=0;exitX=1;exitY=0.75;exitDx=0;exitDy=0;entryX=0;entryY=0.5;entryDx=0;entryDy=0;" edge="1" parent="1" source="KdBA17NYIofGgqOll84M-4" target="KdBA17NYIofGgqOll84M-18">
          <mxGeometry width="50" height="50" relative="1" as="geometry">
            <mxPoint x="452" y="470" as="sourcePoint" />
            <mxPoint x="524" y="508" as="targetPoint" />
          </mxGeometry>
        </mxCell>
        <mxCell id="KdBA17NYIofGgqOll84M-25" value="" style="endArrow=none;html=1;rounded=0;exitX=1;exitY=0.5;exitDx=0;exitDy=0;entryX=0;entryY=0.5;entryDx=0;entryDy=0;" edge="1" parent="1" source="KdBA17NYIofGgqOll84M-4" target="KdBA17NYIofGgqOll84M-19">
          <mxGeometry width="50" height="50" relative="1" as="geometry">
            <mxPoint x="462" y="480" as="sourcePoint" />
            <mxPoint x="534" y="518" as="targetPoint" />
          </mxGeometry>
        </mxCell>
        <mxCell id="KdBA17NYIofGgqOll84M-26" value="" style="endArrow=none;html=1;rounded=0;exitX=1;exitY=0.25;exitDx=0;exitDy=0;entryX=0;entryY=0.5;entryDx=0;entryDy=0;" edge="1" parent="1" source="KdBA17NYIofGgqOll84M-4" target="KdBA17NYIofGgqOll84M-20">
          <mxGeometry width="50" height="50" relative="1" as="geometry">
            <mxPoint x="472" y="490" as="sourcePoint" />
            <mxPoint x="544" y="528" as="targetPoint" />
          </mxGeometry>
        </mxCell>
        <mxCell id="KdBA17NYIofGgqOll84M-27" value="" style="endArrow=none;html=1;rounded=0;exitX=1;exitY=0.5;exitDx=0;exitDy=0;entryX=0.5;entryY=0;entryDx=0;entryDy=0;" edge="1" parent="1" source="KdBA17NYIofGgqOll84M-3" target="KdBA17NYIofGgqOll84M-28">
          <mxGeometry width="50" height="50" relative="1" as="geometry">
            <mxPoint x="700" y="530" as="sourcePoint" />
            <mxPoint x="660" y="400" as="targetPoint" />
            <Array as="points">
              <mxPoint x="665" y="360" />
            </Array>
          </mxGeometry>
        </mxCell>
        <mxCell id="KdBA17NYIofGgqOll84M-28" value="customer" style="rounded=0;whiteSpace=wrap;html=1;" vertex="1" parent="1">
          <mxGeometry x="620" y="410" width="90" height="40" as="geometry" />
        </mxCell>
        <mxCell id="KdBA17NYIofGgqOll84M-29" value="cust_id" style="ellipse;whiteSpace=wrap;html=1;" vertex="1" parent="1">
          <mxGeometry x="760" y="345" width="80" height="50" as="geometry" />
        </mxCell>
        <mxCell id="KdBA17NYIofGgqOll84M-30" value="cust_name" style="ellipse;whiteSpace=wrap;html=1;" vertex="1" parent="1">
          <mxGeometry x="790" y="400" width="80" height="50" as="geometry" />
        </mxCell>
        <mxCell id="KdBA17NYIofGgqOll84M-31" value="cust_mb" style="ellipse;whiteSpace=wrap;html=1;" vertex="1" parent="1">
          <mxGeometry x="730" y="440" width="80" height="50" as="geometry" />
        </mxCell>
        <mxCell id="KdBA17NYIofGgqOll84M-34" value="cust_mail" style="ellipse;whiteSpace=wrap;html=1;" vertex="1" parent="1">
          <mxGeometry x="640" y="470" width="80" height="50" as="geometry" />
        </mxCell>
        <mxCell id="KdBA17NYIofGgqOll84M-35" value="" style="endArrow=none;html=1;rounded=0;exitX=0.5;exitY=0;exitDx=0;exitDy=0;entryX=0.5;entryY=1;entryDx=0;entryDy=0;" edge="1" parent="1" source="KdBA17NYIofGgqOll84M-34" target="KdBA17NYIofGgqOll84M-28">
          <mxGeometry width="50" height="50" relative="1" as="geometry">
            <mxPoint x="700" y="530" as="sourcePoint" />
            <mxPoint x="750" y="480" as="targetPoint" />
          </mxGeometry>
        </mxCell>
        <mxCell id="KdBA17NYIofGgqOll84M-36" value="" style="endArrow=none;html=1;rounded=0;exitX=0.684;exitY=1.03;exitDx=0;exitDy=0;exitPerimeter=0;entryX=0.005;entryY=0.344;entryDx=0;entryDy=0;entryPerimeter=0;" edge="1" parent="1" source="KdBA17NYIofGgqOll84M-28" target="KdBA17NYIofGgqOll84M-31">
          <mxGeometry width="50" height="50" relative="1" as="geometry">
            <mxPoint x="700" y="530" as="sourcePoint" />
            <mxPoint x="750" y="480" as="targetPoint" />
          </mxGeometry>
        </mxCell>
        <mxCell id="KdBA17NYIofGgqOll84M-38" value="" style="endArrow=none;html=1;rounded=0;entryX=1;entryY=0.5;entryDx=0;entryDy=0;exitX=0;exitY=0.5;exitDx=0;exitDy=0;" edge="1" parent="1" source="KdBA17NYIofGgqOll84M-30" target="KdBA17NYIofGgqOll84M-28">
          <mxGeometry width="50" height="50" relative="1" as="geometry">
            <mxPoint x="790" y="420" as="sourcePoint" />
            <mxPoint x="750" y="480" as="targetPoint" />
          </mxGeometry>
        </mxCell>
        <mxCell id="KdBA17NYIofGgqOll84M-39" value="" style="endArrow=none;html=1;rounded=0;entryX=0;entryY=1;entryDx=0;entryDy=0;exitX=1;exitY=0.25;exitDx=0;exitDy=0;" edge="1" parent="1" source="KdBA17NYIofGgqOll84M-28" target="KdBA17NYIofGgqOll84M-29">
          <mxGeometry width="50" height="50" relative="1" as="geometry">
            <mxPoint x="700" y="530" as="sourcePoint" />
            <mxPoint x="750" y="480" as="targetPoint" />
          </mxGeometry>
        </mxCell>
        <mxCell id="KdBA17NYIofGgqOll84M-40" value="" style="endArrow=none;html=1;rounded=0;entryX=0;entryY=0.5;entryDx=0;entryDy=0;exitX=0.5;exitY=0;exitDx=0;exitDy=0;" edge="1" parent="1" source="KdBA17NYIofGgqOll84M-41" target="KdBA17NYIofGgqOll84M-3">
          <mxGeometry width="50" height="50" relative="1" as="geometry">
            <mxPoint x="170" y="420" as="sourcePoint" />
            <mxPoint x="330" y="480" as="targetPoint" />
            <Array as="points">
              <mxPoint x="175" y="360" />
            </Array>
          </mxGeometry>
        </mxCell>
        <mxCell id="KdBA17NYIofGgqOll84M-41" value="trains" style="rounded=0;whiteSpace=wrap;html=1;" vertex="1" parent="1">
          <mxGeometry x="130" y="420" width="90" height="40" as="geometry" />
        </mxCell>
        <mxCell id="KdBA17NYIofGgqOll84M-42" value="trn_id" style="ellipse;whiteSpace=wrap;html=1;" vertex="1" parent="1">
          <mxGeometry x="20" y="400" width="60" height="40" as="geometry" />
        </mxCell>
        <mxCell id="KdBA17NYIofGgqOll84M-43" value="trn_name" style="ellipse;whiteSpace=wrap;html=1;" vertex="1" parent="1">
          <mxGeometry x="20" y="456" width="60" height="40" as="geometry" />
        </mxCell>
        <mxCell id="KdBA17NYIofGgqOll84M-44" value="train_type" style="ellipse;whiteSpace=wrap;html=1;" vertex="1" parent="1">
          <mxGeometry x="70" y="490" width="60" height="40" as="geometry" />
        </mxCell>
        <mxCell id="KdBA17NYIofGgqOll84M-45" value="trn_tckt" style="ellipse;whiteSpace=wrap;html=1;" vertex="1" parent="1">
          <mxGeometry x="50" y="350" width="60" height="40" as="geometry" />
        </mxCell>
        <mxCell id="KdBA17NYIofGgqOll84M-47" value="trn_num" style="ellipse;whiteSpace=wrap;html=1;" vertex="1" parent="1">
          <mxGeometry x="145" y="500" width="60" height="40" as="geometry" />
        </mxCell>
        <mxCell id="KdBA17NYIofGgqOll84M-48" value="" style="endArrow=none;html=1;rounded=0;exitX=0.5;exitY=1;exitDx=0;exitDy=0;entryX=0.5;entryY=0;entryDx=0;entryDy=0;" edge="1" parent="1" source="KdBA17NYIofGgqOll84M-41" target="KdBA17NYIofGgqOll84M-47">
          <mxGeometry width="50" height="50" relative="1" as="geometry">
            <mxPoint x="270" y="530" as="sourcePoint" />
            <mxPoint x="320" y="480" as="targetPoint" />
          </mxGeometry>
        </mxCell>
        <mxCell id="KdBA17NYIofGgqOll84M-49" value="" style="endArrow=none;html=1;rounded=0;exitX=0.25;exitY=1;exitDx=0;exitDy=0;entryX=0.5;entryY=0;entryDx=0;entryDy=0;" edge="1" parent="1" source="KdBA17NYIofGgqOll84M-41" target="KdBA17NYIofGgqOll84M-44">
          <mxGeometry width="50" height="50" relative="1" as="geometry">
            <mxPoint x="185" y="470" as="sourcePoint" />
            <mxPoint x="185" y="510" as="targetPoint" />
          </mxGeometry>
        </mxCell>
        <mxCell id="KdBA17NYIofGgqOll84M-50" value="" style="endArrow=none;html=1;rounded=0;exitX=0;exitY=1;exitDx=0;exitDy=0;entryX=1;entryY=0.5;entryDx=0;entryDy=0;" edge="1" parent="1" source="KdBA17NYIofGgqOll84M-41" target="KdBA17NYIofGgqOll84M-43">
          <mxGeometry width="50" height="50" relative="1" as="geometry">
            <mxPoint x="195" y="480" as="sourcePoint" />
            <mxPoint x="195" y="520" as="targetPoint" />
          </mxGeometry>
        </mxCell>
        <mxCell id="KdBA17NYIofGgqOll84M-51" value="" style="endArrow=none;html=1;rounded=0;exitX=1;exitY=0.5;exitDx=0;exitDy=0;entryX=0;entryY=0.5;entryDx=0;entryDy=0;" edge="1" parent="1" source="KdBA17NYIofGgqOll84M-42" target="KdBA17NYIofGgqOll84M-41">
          <mxGeometry width="50" height="50" relative="1" as="geometry">
            <mxPoint x="205" y="490" as="sourcePoint" />
            <mxPoint x="205" y="530" as="targetPoint" />
          </mxGeometry>
        </mxCell>
        <mxCell id="KdBA17NYIofGgqOll84M-52" value="" style="endArrow=none;html=1;rounded=0;exitX=1;exitY=1;exitDx=0;exitDy=0;entryX=0;entryY=0;entryDx=0;entryDy=0;" edge="1" parent="1" source="KdBA17NYIofGgqOll84M-45" target="KdBA17NYIofGgqOll84M-41">
          <mxGeometry width="50" height="50" relative="1" as="geometry">
            <mxPoint x="90" y="430" as="sourcePoint" />
            <mxPoint x="140" y="450" as="targetPoint" />
          </mxGeometry>
        </mxCell>
        <mxCell id="KdBA17NYIofGgqOll84M-53" value="" style="endArrow=none;html=1;rounded=0;exitX=0;exitY=0.5;exitDx=0;exitDy=0;" edge="1" parent="1" source="KdBA17NYIofGgqOll84M-3">
          <mxGeometry width="50" height="50" relative="1" as="geometry">
            <mxPoint x="340" y="320" as="sourcePoint" />
            <mxPoint x="290" y="210" as="targetPoint" />
            <Array as="points">
              <mxPoint x="385" y="320" />
              <mxPoint x="290" y="320" />
            </Array>
          </mxGeometry>
        </mxCell>
        <mxCell id="KdBA17NYIofGgqOll84M-54" value="user" style="rounded=0;whiteSpace=wrap;html=1;" vertex="1" parent="1">
          <mxGeometry x="240" y="170" width="100" height="40" as="geometry" />
        </mxCell>
        <mxCell id="KdBA17NYIofGgqOll84M-64" value="" style="endArrow=none;html=1;rounded=0;entryX=0.25;entryY=1;entryDx=0;entryDy=0;exitX=1;exitY=0.5;exitDx=0;exitDy=0;" edge="1" parent="1" source="KdBA17NYIofGgqOll84M-65" target="KdBA17NYIofGgqOll84M-54">
          <mxGeometry width="50" height="50" relative="1" as="geometry">
            <mxPoint x="78" y="250" as="sourcePoint" />
            <mxPoint x="53" y="210" as="targetPoint" />
          </mxGeometry>
        </mxCell>
        <mxCell id="KdBA17NYIofGgqOll84M-65" value="user_id" style="ellipse;whiteSpace=wrap;html=1;" vertex="1" parent="1">
          <mxGeometry x="130" y="260" width="90" height="40" as="geometry" />
        </mxCell>
        <mxCell id="KdBA17NYIofGgqOll84M-66" value="user_name" style="ellipse;whiteSpace=wrap;html=1;" vertex="1" parent="1">
          <mxGeometry x="123" y="210" width="90" height="40" as="geometry" />
        </mxCell>
        <mxCell id="KdBA17NYIofGgqOll84M-67" value="user_mail" style="ellipse;whiteSpace=wrap;html=1;" vertex="1" parent="1">
          <mxGeometry x="110" y="160" width="90" height="40" as="geometry" />
        </mxCell>
        <mxCell id="KdBA17NYIofGgqOll84M-68" value="user_mbl" style="ellipse;whiteSpace=wrap;html=1;" vertex="1" parent="1">
          <mxGeometry x="106" y="110" width="90" height="40" as="geometry" />
        </mxCell>
        <mxCell id="KdBA17NYIofGgqOll84M-69" value="" style="endArrow=none;html=1;rounded=0;entryX=0;entryY=1;entryDx=0;entryDy=0;exitX=1;exitY=0.5;exitDx=0;exitDy=0;" edge="1" parent="1" source="KdBA17NYIofGgqOll84M-66" target="KdBA17NYIofGgqOll84M-54">
          <mxGeometry width="50" height="50" relative="1" as="geometry">
            <mxPoint x="78" y="320" as="sourcePoint" />
            <mxPoint x="78" y="210" as="targetPoint" />
          </mxGeometry>
        </mxCell>
        <mxCell id="KdBA17NYIofGgqOll84M-70" value="" style="endArrow=none;html=1;rounded=0;entryX=0;entryY=0.5;entryDx=0;entryDy=0;exitX=1;exitY=0.5;exitDx=0;exitDy=0;" edge="1" parent="1" source="KdBA17NYIofGgqOll84M-67" target="KdBA17NYIofGgqOll84M-54">
          <mxGeometry width="50" height="50" relative="1" as="geometry">
            <mxPoint x="133" y="240" as="sourcePoint" />
            <mxPoint x="78" y="190" as="targetPoint" />
          </mxGeometry>
        </mxCell>
        <mxCell id="KdBA17NYIofGgqOll84M-71" value="" style="endArrow=none;html=1;rounded=0;entryX=0;entryY=0;entryDx=0;entryDy=0;exitX=1;exitY=1;exitDx=0;exitDy=0;" edge="1" parent="1" source="KdBA17NYIofGgqOll84M-68" target="KdBA17NYIofGgqOll84M-54">
          <mxGeometry width="50" height="50" relative="1" as="geometry">
            <mxPoint x="143" y="190" as="sourcePoint" />
            <mxPoint x="78" y="170" as="targetPoint" />
          </mxGeometry>
        </mxCell>
        <mxCell id="KdBA17NYIofGgqOll84M-73" value="has" style="rhombus;whiteSpace=wrap;html=1;" vertex="1" parent="1">
          <mxGeometry x="560" y="160" width="70" height="60" as="geometry" />
        </mxCell>
        <mxCell id="KdBA17NYIofGgqOll84M-74" value="" style="endArrow=none;html=1;rounded=0;exitX=1;exitY=0.5;exitDx=0;exitDy=0;entryX=0;entryY=0.5;entryDx=0;entryDy=0;" edge="1" parent="1" source="KdBA17NYIofGgqOll84M-54" target="KdBA17NYIofGgqOll84M-73">
          <mxGeometry width="50" height="50" relative="1" as="geometry">
            <mxPoint x="640" y="260" as="sourcePoint" />
            <mxPoint x="690" y="210" as="targetPoint" />
          </mxGeometry>
        </mxCell>
        <mxCell id="KdBA17NYIofGgqOll84M-76" value="" style="endArrow=none;html=1;rounded=0;entryX=0.5;entryY=1;entryDx=0;entryDy=0;exitX=0;exitY=0.5;exitDx=0;exitDy=0;" edge="1" parent="1" source="KdBA17NYIofGgqOll84M-80" target="KdBA17NYIofGgqOll84M-73">
          <mxGeometry width="50" height="50" relative="1" as="geometry">
            <mxPoint x="625" y="260" as="sourcePoint" />
            <mxPoint x="550" y="200" as="targetPoint" />
            <Array as="points">
              <mxPoint x="595" y="270" />
            </Array>
          </mxGeometry>
        </mxCell>
        <mxCell id="KdBA17NYIofGgqOll84M-77" value="" style="endArrow=none;html=1;rounded=0;exitX=1;exitY=0.5;exitDx=0;exitDy=0;entryX=0;entryY=0.5;entryDx=0;entryDy=0;" edge="1" parent="1" source="KdBA17NYIofGgqOll84M-73" target="KdBA17NYIofGgqOll84M-79">
          <mxGeometry width="50" height="50" relative="1" as="geometry">
            <mxPoint x="615" y="180" as="sourcePoint" />
            <mxPoint x="680" y="190" as="targetPoint" />
          </mxGeometry>
        </mxCell>
        <mxCell id="KdBA17NYIofGgqOll84M-79" value="role" style="rounded=0;whiteSpace=wrap;html=1;" vertex="1" parent="1">
          <mxGeometry x="780" y="170" width="90" height="40" as="geometry" />
        </mxCell>
        <mxCell id="KdBA17NYIofGgqOll84M-80" value="permission" style="rounded=0;whiteSpace=wrap;html=1;" vertex="1" parent="1">
          <mxGeometry x="630" y="250" width="90" height="40" as="geometry" />
        </mxCell>
        <mxCell id="KdBA17NYIofGgqOll84M-82" value="" style="endArrow=none;html=1;rounded=0;exitX=0.5;exitY=0;exitDx=0;exitDy=0;entryX=0.5;entryY=1;entryDx=0;entryDy=0;" edge="1" parent="1" source="KdBA17NYIofGgqOll84M-73" target="KdBA17NYIofGgqOll84M-81">
          <mxGeometry width="50" height="50" relative="1" as="geometry">
            <mxPoint x="595" y="160" as="sourcePoint" />
            <mxPoint x="595" y="80" as="targetPoint" />
          </mxGeometry>
        </mxCell>
        <mxCell id="KdBA17NYIofGgqOll84M-81" value="login" style="rounded=0;whiteSpace=wrap;html=1;" vertex="1" parent="1">
          <mxGeometry x="550" y="110" width="90" height="40" as="geometry" />
        </mxCell>
        <mxCell id="KdBA17NYIofGgqOll84M-84" value="" style="endArrow=none;html=1;rounded=0;exitX=0.25;exitY=0;exitDx=0;exitDy=0;entryX=1;entryY=1;entryDx=0;entryDy=0;" edge="1" parent="1" source="KdBA17NYIofGgqOll84M-81" target="KdBA17NYIofGgqOll84M-89">
          <mxGeometry width="50" height="50" relative="1" as="geometry">
            <mxPoint x="640" y="130" as="sourcePoint" />
            <mxPoint x="560" y="80" as="targetPoint" />
          </mxGeometry>
        </mxCell>
        <mxCell id="KdBA17NYIofGgqOll84M-85" value="" style="endArrow=none;html=1;rounded=0;exitX=0.5;exitY=0;exitDx=0;exitDy=0;entryX=0.5;entryY=1;entryDx=0;entryDy=0;" edge="1" parent="1" source="KdBA17NYIofGgqOll84M-81" target="KdBA17NYIofGgqOll84M-90">
          <mxGeometry width="50" height="50" relative="1" as="geometry">
            <mxPoint x="640" y="130" as="sourcePoint" />
            <mxPoint x="600" y="40" as="targetPoint" />
          </mxGeometry>
        </mxCell>
        <mxCell id="KdBA17NYIofGgqOll84M-86" value="" style="endArrow=none;html=1;rounded=0;exitX=0.75;exitY=0;exitDx=0;exitDy=0;" edge="1" parent="1" source="KdBA17NYIofGgqOll84M-81" target="KdBA17NYIofGgqOll84M-87">
          <mxGeometry width="50" height="50" relative="1" as="geometry">
            <mxPoint x="640" y="130" as="sourcePoint" />
            <mxPoint x="650" y="80" as="targetPoint" />
          </mxGeometry>
        </mxCell>
        <mxCell id="KdBA17NYIofGgqOll84M-87" value="user_password" style="ellipse;whiteSpace=wrap;html=1;" vertex="1" parent="1">
          <mxGeometry x="625" y="50" width="80" height="40" as="geometry" />
        </mxCell>
        <mxCell id="KdBA17NYIofGgqOll84M-89" value="login_id" style="ellipse;whiteSpace=wrap;html=1;" vertex="1" parent="1">
          <mxGeometry x="510" y="40" width="65" height="40" as="geometry" />
        </mxCell>
        <mxCell id="KdBA17NYIofGgqOll84M-90" value="user_mail" style="ellipse;whiteSpace=wrap;html=1;" vertex="1" parent="1">
          <mxGeometry x="560" y="-10" width="80" height="40" as="geometry" />
        </mxCell>
        <mxCell id="KdBA17NYIofGgqOll84M-91" value="" style="endArrow=none;html=1;rounded=0;exitX=1;exitY=0.5;exitDx=0;exitDy=0;" edge="1" parent="1" source="KdBA17NYIofGgqOll84M-81" target="KdBA17NYIofGgqOll84M-92">
          <mxGeometry width="50" height="50" relative="1" as="geometry">
            <mxPoint x="605" y="120" as="sourcePoint" />
            <mxPoint x="700" y="130" as="targetPoint" />
          </mxGeometry>
        </mxCell>
        <mxCell id="KdBA17NYIofGgqOll84M-92" value="logiin_username" style="ellipse;whiteSpace=wrap;html=1;" vertex="1" parent="1">
          <mxGeometry x="680" y="110" width="100" height="40" as="geometry" />
        </mxCell>
        <mxCell id="KdBA17NYIofGgqOll84M-93" value="role_id" style="ellipse;whiteSpace=wrap;html=1;" vertex="1" parent="1">
          <mxGeometry x="870" y="100" width="90" height="40" as="geometry" />
        </mxCell>
        <mxCell id="KdBA17NYIofGgqOll84M-94" value="role_name" style="ellipse;whiteSpace=wrap;html=1;" vertex="1" parent="1">
          <mxGeometry x="910" y="160" width="90" height="40" as="geometry" />
        </mxCell>
        <mxCell id="KdBA17NYIofGgqOll84M-95" value="" style="endArrow=none;html=1;rounded=0;entryX=0;entryY=0.5;entryDx=0;entryDy=0;exitX=0.5;exitY=0;exitDx=0;exitDy=0;" edge="1" parent="1" source="KdBA17NYIofGgqOll84M-79" target="KdBA17NYIofGgqOll84M-93">
          <mxGeometry width="50" height="50" relative="1" as="geometry">
            <mxPoint x="640" y="210" as="sourcePoint" />
            <mxPoint x="690" y="160" as="targetPoint" />
          </mxGeometry>
        </mxCell>
        <mxCell id="KdBA17NYIofGgqOll84M-96" value="" style="endArrow=none;html=1;rounded=0;entryX=0;entryY=0.5;entryDx=0;entryDy=0;exitX=1;exitY=0.25;exitDx=0;exitDy=0;" edge="1" parent="1" source="KdBA17NYIofGgqOll84M-79" target="KdBA17NYIofGgqOll84M-94">
          <mxGeometry width="50" height="50" relative="1" as="geometry">
            <mxPoint x="835" y="180" as="sourcePoint" />
            <mxPoint x="880" y="130" as="targetPoint" />
          </mxGeometry>
        </mxCell>
        <mxCell id="KdBA17NYIofGgqOll84M-99" value="per_role_id" style="ellipse;whiteSpace=wrap;html=1;" vertex="1" parent="1">
          <mxGeometry x="765" y="220" width="70" height="40" as="geometry" />
        </mxCell>
        <mxCell id="KdBA17NYIofGgqOll84M-100" value="per_mod" style="ellipse;whiteSpace=wrap;html=1;" vertex="1" parent="1">
          <mxGeometry x="810" y="260" width="70" height="40" as="geometry" />
        </mxCell>
        <mxCell id="KdBA17NYIofGgqOll84M-101" value="per_name" style="ellipse;whiteSpace=wrap;html=1;" vertex="1" parent="1">
          <mxGeometry x="720" y="300" width="70" height="40" as="geometry" />
        </mxCell>
        <mxCell id="KdBA17NYIofGgqOll84M-102" value="" style="endArrow=none;html=1;rounded=0;entryX=0;entryY=0.5;entryDx=0;entryDy=0;exitX=1;exitY=0.5;exitDx=0;exitDy=0;" edge="1" parent="1" source="KdBA17NYIofGgqOll84M-80" target="KdBA17NYIofGgqOll84M-99">
          <mxGeometry width="50" height="50" relative="1" as="geometry">
            <mxPoint x="640" y="210" as="sourcePoint" />
            <mxPoint x="690" y="160" as="targetPoint" />
          </mxGeometry>
        </mxCell>
        <mxCell id="KdBA17NYIofGgqOll84M-103" value="" style="endArrow=none;html=1;rounded=0;entryX=0;entryY=0.5;entryDx=0;entryDy=0;exitX=1;exitY=0.75;exitDx=0;exitDy=0;" edge="1" parent="1" source="KdBA17NYIofGgqOll84M-80" target="KdBA17NYIofGgqOll84M-100">
          <mxGeometry width="50" height="50" relative="1" as="geometry">
            <mxPoint x="640" y="210" as="sourcePoint" />
            <mxPoint x="690" y="160" as="targetPoint" />
          </mxGeometry>
        </mxCell>
        <mxCell id="KdBA17NYIofGgqOll84M-104" value="" style="endArrow=none;html=1;rounded=0;entryX=0;entryY=0;entryDx=0;entryDy=0;exitX=0.75;exitY=1;exitDx=0;exitDy=0;" edge="1" parent="1" source="KdBA17NYIofGgqOll84M-80" target="KdBA17NYIofGgqOll84M-101">
          <mxGeometry width="50" height="50" relative="1" as="geometry">
            <mxPoint x="730" y="290" as="sourcePoint" />
            <mxPoint x="820" y="290" as="targetPoint" />
          </mxGeometry>
        </mxCell>
      </root>
    </mxGraphModel>
  </diagram>
</mxfile>
